<!-- icon666.com - MILLIONS OF FREE VECTOR ICONS --><svg version="1.1" id="Layer_1" xmlns="http://www.w3.org/2000/svg" xmlns:xlink="http://www.w3.org/1999/xlink" x="0px" y="0px" viewBox="0 0 512.001 512.001" style="enable-background:new 0 0 512.001 512.001;" xml:space="preserve"><g><g><path d="M280.054,104.975c-0.01-0.443-0.015-0.888-0.032-1.331c-0.033-0.855-0.086-1.707-0.144-2.56 c-0.031-0.452-0.059-0.905-0.097-1.357c-0.071-0.86-0.157-1.716-0.253-2.574c-0.049-0.433-0.1-0.867-0.155-1.299 c-0.111-0.879-0.233-1.755-0.371-2.631c-0.061-0.386-0.129-0.771-0.195-1.157c-0.157-0.922-0.321-1.841-0.508-2.759 c-0.056-0.276-0.121-0.55-0.18-0.827c-0.978-4.577-2.319-9.09-4.029-13.493c-0.045-0.115-0.085-0.23-0.13-0.345 c-0.385-0.98-0.797-1.951-1.22-2.92c-0.109-0.25-0.214-0.5-0.325-0.749c-0.411-0.921-0.844-1.834-1.288-2.743 c-0.138-0.282-0.276-0.564-0.417-0.845c-0.45-0.897-0.917-1.787-1.399-2.672c-0.147-0.27-0.298-0.538-0.449-0.807 c-0.504-0.9-1.019-1.794-1.557-2.68c-0.126-0.207-0.257-0.411-0.385-0.617c-3.515-5.68-7.709-11.056-12.632-15.98 c-31.076-31.076-79.741-34.095-114.236-9.065c-34.496-25.033-83.162-22.006-114.236,9.065c-34.42,34.421-34.42,90.428,0,124.85 l19.47,19.47l94.767,94.765L254.287,169.48c1.017-1.017,1.998-2.055,2.954-3.108c0.314-0.346,0.612-0.703,0.921-1.053 c0.629-0.715,1.255-1.433,1.857-2.163c0.351-0.425,0.687-0.859,1.029-1.289c0.533-0.672,1.062-1.348,1.573-2.032 c0.345-0.462,0.681-0.93,1.018-1.398c0.48-0.67,0.952-1.346,1.411-2.027c0.325-0.482,0.646-0.965,0.962-1.452 c0.445-0.688,0.876-1.384,1.3-2.082c0.295-0.486,0.592-0.972,0.878-1.462c0.424-0.732,0.83-1.47,1.231-2.21 c0.253-0.467,0.515-0.931,0.759-1.401c0.445-0.858,0.865-1.725,1.281-2.594c0.173-0.362,0.359-0.719,0.527-1.083 c0.556-1.208,1.084-2.426,1.584-3.651c0.192-0.472,0.363-0.951,0.547-1.426c0.302-0.78,0.604-1.558,0.883-2.345 c0.205-0.577,0.391-1.159,0.583-1.739c0.229-0.691,0.457-1.383,0.669-2.078c0.189-0.621,0.364-1.246,0.54-1.871 c0.184-0.658,0.364-1.319,0.533-1.98c0.166-0.651,0.324-1.305,0.476-1.959c0.147-0.638,0.285-1.277,0.418-1.918 c0.141-0.678,0.279-1.356,0.404-2.037c0.112-0.613,0.211-1.229,0.31-1.843c0.115-0.708,0.232-1.415,0.329-2.125 c0.077-0.565,0.137-1.133,0.203-1.7c0.089-0.76,0.186-1.521,0.256-2.284c0.021-0.231,0.031-0.464,0.05-0.695 c0.163-1.948,0.256-3.9,0.291-5.853c0.006-0.345,0.023-0.689,0.025-1.035C280.096,106.714,280.074,105.845,280.054,104.975z"></path></g></g><g><g><path d="M299.422,57.8c19.934,43.654,11.969,97.03-23.908,132.908l-11.187,11.187h179.926v30.02H239.117v-4.81l-37.831,37.832 h242.967v30.02H199.091v-27.824l-37.812,37.812l-21.227,21.228l-21.227-21.228l-73.539-73.539v136.6h297.068l108.904,125.178 V368.005h60.743V57.8H299.422z M444.253,166.872H309.163v-30.02h135.089V166.872z"></path></g></g></svg>