<!-- icon666.com - MILLIONS OF FREE VECTOR ICONS --><svg version="1.1" id="Capa_1" xmlns="http://www.w3.org/2000/svg" xmlns:xlink="http://www.w3.org/1999/xlink" x="0px" y="0px" viewBox="0 0 512 512" style="enable-background:new 0 0 512 512;" xml:space="preserve"><g><g><path d="M485.985,37.74H26.014C11.669,37.74,0,49.41,0,63.754V348c0,14.344,11.669,26.014,26.014,26.014h131.189v25.678H108.73 c-20.072,0-36.401,16.33-36.401,36.402v1.764c0,20.072,16.33,36.402,36.401,36.402h294.538c20.072,0,36.402-16.33,36.402-36.402 v-1.764c0-20.072-16.33-36.402-36.402-36.402h-48.472v-25.678h131.189C500.33,374.014,512,362.344,512,348V63.754 C512,49.41,500.33,37.74,485.985,37.74z M403.268,419.692c9.045-0.001,16.403,7.358,16.403,16.402v1.764 c0,9.044-7.358,16.402-16.402,16.402H108.73c-9.044,0-16.401-7.358-16.401-16.402v-1.764c0-9.044,7.357-16.402,16.401-16.402 H403.268z M177.203,399.691v-25.678h157.594v25.678H177.203z M492.001,348H492c0,3.26-2.755,6.014-6.015,6.014H26.014 c-3.26,0-6.014-2.754-6.014-6.014V63.754c0-3.26,2.754-6.014,6.014-6.014h459.972c3.26,0,6.015,2.754,6.015,6.014V348z"></path></g></g><g><g><path d="M445.516,88.141H66.484c-5.523,0-10,4.478-10,10V313.1c0,5.522,4.477,10,10,10h379.031c5.522,0,10-4.478,10-10V98.141 C455.516,92.618,451.038,88.141,445.516,88.141z M76.484,303.1V145.265c1.208,0.519,2.539,0.808,3.938,0.808h60.627 c5.523,0,10-4.477,10-10c0-5.522-4.477-10-10-10H80.422c-1.399,0-2.729,0.289-3.938,0.808v-18.739h359.031V303.1H76.484z"></path></g></g><g><g><path d="M173.385,126.072h-0.87c-5.523,0-10,4.478-10,10c0,5.523,4.477,10,10,10h0.87c5.523,0,10-4.477,10-10 C183.385,130.55,178.908,126.072,173.385,126.072z"></path></g></g><g><g><path d="M164.093,177.586c-5.523,0-10,4.477-10,10v30.576l-34.653-37.375c-2.796-3.016-7.153-4.012-10.984-2.511 c-3.829,1.502-6.348,5.196-6.348,9.31v56.07c0,5.523,4.477,10,10,10c5.523,0,10-4.477,10-10V213.08l34.653,37.375 c1.93,2.082,4.604,3.201,7.335,3.201c1.226,0,2.463-0.226,3.649-0.69c3.829-1.502,6.348-5.196,6.348-9.31v-56.07 C174.093,182.063,169.616,177.586,164.093,177.586z"></path></g></g><g><g><path d="M231.962,225.621c5.523,0,10-4.477,10-10c0-5.522-4.477-10-10-10h-22.354v-8.035h22.354c5.523,0,10-4.478,10-10 c0-5.523-4.477-10-10-10h-32.354c-5.523,0-10,4.477-10,10v56.07c0,5.523,4.477,10,10,10h32.354c5.523,0,10-4.477,10-10 s-4.477-10-10-10h-22.354v-8.035H231.962z"></path></g></g><g><g><path d="M330.093,177.586c-5.523,0-10,4.477-10,10v31.693L306.47,205.47c-1.879-1.905-4.443-2.978-7.119-2.978 c-2.676,0-5.24,1.072-7.119,2.978l-13.624,13.81v-31.694c0-5.523-4.477-10-10-10c-5.522,0-10,4.477-10,10v56.07 c0,4.057,2.452,7.712,6.204,9.252c3.752,1.539,8.065,0.659,10.915-2.229l23.624-23.947l23.623,23.947 c1.917,1.943,4.496,2.977,7.121,2.977c1.277,0,2.565-0.244,3.793-0.748c3.754-1.54,6.205-5.195,6.205-9.252v-56.07 C340.093,182.063,335.615,177.586,330.093,177.586z"></path></g></g><g><g><path d="M381.556,197.584h18.336c5.522,0,10-4.478,10-10c0-5.523-4.478-10-10-10h-18.336c-13.243,0-24.018,10.774-24.018,24.018 c0,13.243,10.774,24.018,24.018,24.018c2.178,0,4.018,1.84,4.018,4.018c0,2.178-1.84,4.018-4.018,4.018h-18.335 c-5.522,0-10,4.477-10,10s4.477,10,10,10h18.335c13.243,0,24.018-10.774,24.018-24.018c0-13.243-10.774-24.018-24.018-24.018 c-2.178,0-4.018-1.84-4.018-4.018S379.378,197.584,381.556,197.584z"></path></g></g></svg>