<!-- icon666.com - MILLIONS OF FREE VECTOR ICONS --><svg enable-background="new 0 0 64 64" viewBox="0 0 64 64" xmlns="http://www.w3.org/2000/svg"><g id="Layer_2"><g><g><path d="m33.054 17.993h-12.637c-.267 0-.522-.106-.71-.296-1.495-1.509-2.428-3.414-2.698-5.508-.069-.361-.107-.824-.107-1.361 0-.963.143-1.923.425-2.854 1.262-4.171 5.041-6.974 9.402-6.974 4.369 0 8.153 2.803 9.415 6.974.282.931.425 1.891.425 2.854 0 .54-.038 1.003-.116 1.418-.261 2.037-1.194 3.941-2.689 5.45-.187.19-.443.297-.71.297zm-12.206-2h11.774c1.021-1.143 1.66-2.539 1.856-4.06.063-.348.09-.691.09-1.105 0-.767-.114-1.532-.339-2.274-1.004-3.322-4.019-5.554-7.5-5.554-3.419 0-6.499 2.284-7.489 5.554-.225.743-.339 1.508-.339 2.274 0 .412.027.755.082 1.049.204 1.573.844 2.973 1.865 4.116z"></path></g><g><path d="m35.446 29.916h-17.422c-1.782 0-3.231-1.45-3.231-3.231v-7.447c0-1.789 1.45-3.244 3.231-3.244h17.422c1.782 0 3.231 1.455 3.231 3.244v7.447c.001 1.781-1.449 3.231-3.231 3.231zm-17.422-11.923c-.679 0-1.231.558-1.231 1.244v7.447c0 .679.552 1.231 1.231 1.231h17.422c.679 0 1.231-.552 1.231-1.231v-7.447c0-.686-.552-1.244-1.231-1.244z"></path></g><g><path d="m32.697 35.156h-12.133c-1.51 0-2.739-1.234-2.739-2.751v-3.489c0-.552.448-1 1-1h15.609c.552 0 1 .448 1 1v3.489c.001 1.517-1.227 2.751-2.737 2.751zm-12.871-5.24v2.489c0 .421.325.751.739.751h12.132c.414 0 .738-.33.738-.751v-2.489z"></path></g><g><path d="m29.161 52.828h-5.061c-1.258 0-2.304-.944-2.431-2.195l-1.68-16.375c-.029-.282.063-.562.252-.772s.459-.33.742-.33h11.294c.283 0 .553.12.742.33.19.21.281.49.252.772l-1.679 16.375c-.128 1.252-1.173 2.195-2.431 2.195zm-7.07-17.672 1.566 15.273c.023.228.213.399.442.399h5.062c.229 0 .419-.171.442-.399l1.566-15.273z"></path></g><g><path d="m26.955 56.527h-.854c-1.563 0-2.833-1.271-2.833-2.833v-1.866c0-.552.448-1 1-1h4.521c.552 0 1 .448 1 1v1.866c-.001 1.562-1.272 2.833-2.834 2.833zm-1.688-3.699v.866c0 .459.374.833.833.833h.854c.459 0 .833-.374.833-.833v-.866z"></path></g><g><path d="m34.285 63h-2.877c-3.243 0-5.88-2.638-5.88-5.88v-1.593c0-.552.448-1 1-1s1 .448 1 1v1.593c0 2.14 1.741 3.88 3.88 3.88h2.877c2.14 0 3.88-1.741 3.88-3.88 0-2.449 1.993-4.442 4.442-4.442h5.6c.552 0 1 .448 1 1s-.448 1-1 1h-5.6c-1.347 0-2.442 1.095-2.442 2.442.001 3.242-2.637 5.88-5.88 5.88z"></path></g><g><path d="m35.471 13.061h-17.471c-.481 0-.895-.343-.983-.816-.078-.417-.116-.88-.116-1.417 0-.963.143-1.923.425-2.854.128-.422.517-.71.957-.71h16.904c.44 0 .829.288.957.71.282.931.425 1.892.425 2.854 0 .54-.038 1.003-.116 1.418-.088.473-.501.815-.982.815zm-16.567-2h15.663c.002-.075.003-.153.003-.233 0-.524-.053-1.048-.159-1.564h-15.351c-.106.517-.159 1.04-.159 1.564 0 .08.001.158.003.233z"></path></g><path d="m19.583 21.295 1.639 2.48v-2.503c0-.163.035-.285.105-.366s.164-.122.283-.122c.122 0 .219.041.29.122s.106.203.106.366v3.309c0 .369-.153.554-.459.554-.077 0-.145-.011-.207-.033s-.119-.057-.172-.105c-.054-.048-.103-.104-.149-.168s-.092-.13-.138-.197l-1.599-2.451v2.465c0 .161-.037.282-.112.365-.075.082-.17.123-.287.123-.121 0-.217-.042-.29-.125s-.109-.204-.109-.363v-3.246c0-.138.015-.246.046-.324.036-.086.097-.156.181-.211s.175-.082.273-.082c.077 0 .142.012.197.037s.102.058.144.1c.041.042.083.097.126.164.041.069.086.138.132.211z"></path><path d="m25.71 21.513h-1.92v1.033h1.768c.13 0 .227.029.291.088s.096.135.096.231-.032.174-.095.234-.161.09-.293.09h-1.767v1.197h1.986c.134 0 .235.031.303.093s.102.145.102.248c0 .099-.034.18-.102.243-.068.062-.169.093-.303.093h-2.316c-.186 0-.319-.041-.4-.123s-.122-.215-.122-.399v-3.163c0-.122.018-.222.055-.3.036-.077.093-.134.171-.169s.177-.053.297-.053h2.25c.136 0 .237.03.303.09s.099.139.099.237c0 .099-.033.179-.099.24-.067.06-.168.09-.304.09z"></path><path d="m29.838 24.401-.68-2.523-.689 2.523c-.054.191-.096.329-.128.412s-.087.158-.165.224-.183.099-.313.099c-.105 0-.192-.02-.26-.059s-.123-.095-.165-.166c-.042-.072-.077-.157-.103-.255-.027-.099-.051-.19-.072-.274l-.7-2.833c-.042-.165-.063-.29-.063-.376 0-.109.038-.201.115-.276s.171-.112.284-.112c.155 0 .259.05.313.149s.1.244.141.433l.551 2.457.617-2.299c.046-.176.087-.31.123-.402s.096-.171.178-.238.194-.1.336-.1c.144 0 .255.035.334.105s.134.146.165.228.072.218.123.408l.623 2.299.551-2.457c.027-.128.052-.229.076-.301.024-.073.065-.138.123-.195s.143-.086.254-.086.205.037.283.111c.077.074.116.166.116.277 0 .078-.021.204-.063.376l-.7 2.833c-.048.191-.088.332-.119.42-.032.089-.085.167-.161.234s-.182.1-.32.1c-.13 0-.234-.033-.313-.098-.078-.065-.133-.138-.164-.22-.03-.082-.073-.221-.128-.418z"></path><path d="m35.569 23.801c0 .254-.066.483-.197.686s-.323.362-.575.476-.552.172-.898.172c-.415 0-.758-.078-1.028-.235-.191-.113-.347-.264-.466-.452-.12-.188-.179-.372-.179-.55 0-.103.036-.192.108-.265.072-.074.163-.111.274-.111.09 0 .166.029.228.086s.115.143.159.255c.054.134.111.246.174.336s.15.164.263.222.261.088.445.088c.253 0 .458-.059.616-.177s.237-.265.237-.441c0-.14-.043-.253-.128-.34s-.195-.154-.33-.199c-.135-.046-.315-.095-.541-.146-.302-.071-.555-.154-.759-.248s-.365-.224-.485-.387c-.12-.164-.179-.367-.179-.61 0-.232.063-.437.189-.617s.309-.318.548-.415.52-.145.844-.145c.258 0 .482.032.67.096s.345.149.469.255.215.218.273.334.086.231.086.342c0 .101-.036.193-.108.274s-.161.122-.268.122c-.098 0-.172-.024-.222-.073-.051-.049-.106-.129-.165-.24-.077-.159-.168-.283-.276-.372-.107-.089-.279-.133-.517-.133-.22 0-.398.048-.532.145-.135.097-.202.213-.202.349 0 .084.023.157.069.218s.109.114.189.158.162.078.244.103.218.061.408.109c.237.055.452.117.644.184s.356.148.491.244.24.217.316.363c.074.147.111.326.111.539z"></path></g></g></svg>