<!-- icon666.com - MILLIONS OF FREE VECTOR ICONS --><svg version="1.1" id="Capa_1" xmlns="http://www.w3.org/2000/svg" xmlns:xlink="http://www.w3.org/1999/xlink" x="0px" y="0px" viewBox="0 0 512 512" style="enable-background:new 0 0 512 512;" xml:space="preserve"><g><g><path d="M501.333,85.333H64c-5.888,0-10.667,4.768-10.667,10.667S58.112,106.667,64,106.667h426.667v352c0,17.643-14.357,32-32,32 H53.333c-17.643,0-32-14.357-32-32V53.333c0-17.643,14.357-32,32-32h405.28c5.355,0.064,32.053,1.888,32.053,32 c0,5.899,4.779,10.667,10.667,10.667C507.221,64,512,59.232,512,53.333C512,11.147,477.109,0,458.667,0H53.333 C23.925,0,0,23.925,0,53.333v405.333C0,488.075,23.925,512,53.333,512h405.333C488.075,512,512,488.075,512,458.667V96 C512,90.101,507.221,85.333,501.333,85.333z"></path></g></g><g><g><path d="M85.333,42.667H64c-5.888,0-10.667,4.768-10.667,10.667C53.333,59.232,58.112,64,64,64h21.333 C91.221,64,96,59.232,96,53.333C96,47.435,91.221,42.667,85.333,42.667z"></path></g></g><g><g><path d="M149.333,42.667H128c-5.888,0-10.667,4.768-10.667,10.667C117.333,59.232,122.112,64,128,64h21.333 C155.221,64,160,59.232,160,53.333C160,47.435,155.221,42.667,149.333,42.667z"></path></g></g><g><g><path d="M458.667,42.667h-21.333c-5.888,0-10.667,4.768-10.667,10.667c0,5.899,4.779,10.667,10.667,10.667h21.333 c5.888,0,10.667-4.768,10.667-10.667C469.333,47.435,464.555,42.667,458.667,42.667z"></path></g></g><g><g><path d="M256,160c-76.459,0-138.667,62.208-138.667,138.667S179.541,437.333,256,437.333s138.667-62.208,138.667-138.667 S332.459,160,256,160z M256,416c-64.693,0-117.333-52.64-117.333-117.333S191.307,181.333,256,181.333 s117.333,52.64,117.333,117.333S320.693,416,256,416z"></path></g></g><g><g><path d="M213.333,234.667c-17.643,0-32,14.357-32,32c0,5.899,4.779,10.667,10.667,10.667s10.667-4.768,10.667-10.667 c0-5.888,4.789-10.667,10.667-10.667c5.877,0,10.667,4.779,10.667,10.667c0,5.899,4.779,10.667,10.667,10.667 s10.667-4.768,10.667-10.667C245.333,249.024,230.976,234.667,213.333,234.667z"></path></g></g><g><g><path d="M298.667,234.667c-17.643,0-32,14.357-32,32c0,5.899,4.779,10.667,10.667,10.667S288,272.565,288,266.667 c0-5.888,4.789-10.667,10.667-10.667c5.877,0,10.667,4.779,10.667,10.667c0,5.899,4.779,10.667,10.667,10.667 s10.667-4.768,10.667-10.667C330.667,249.024,316.309,234.667,298.667,234.667z"></path></g></g><g><g><path d="M256,288c-41.173,0-74.667,33.504-74.667,74.667c0,5.899,4.779,10.667,10.667,10.667s10.667-4.768,10.667-10.667 c0-29.408,23.925-53.333,53.333-53.333s53.333,23.925,53.333,53.333c0,5.899,4.779,10.667,10.667,10.667 s10.667-4.768,10.667-10.667C330.667,321.504,297.173,288,256,288z"></path></g></g></svg>