<!-- icon666.com - MILLIONS OF FREE VECTOR ICONS --><svg id="Capa_1" enable-background="new 0 0 512 512" viewBox="0 0 512 512" xmlns="http://www.w3.org/2000/svg"><g><path d="m57.47 485.227h397.06c31.74 0 57.47-25.73 57.47-57.47v-355.616c0-25.056-20.312-45.368-45.368-45.368h-306.324c-25.056 0-45.368 20.312-45.368 45.368v51.324" fill="#f9f6f9" style="fill: rgb(255, 255, 255);"></path><path d="m114.937 123.467v304.295c0 31.74-25.724 57.464-57.464 57.464s-57.473-25.724-57.473-57.464v-258.926c0-25.054 20.315-45.369 45.369-45.369z" fill="#dfeaef" style="fill: rgb(255, 255, 255);"></path><path d="m466.632 74.055h-306.324c-4.267 0-7.726-3.459-7.726-7.726s3.459-7.726 7.726-7.726h306.324c4.267 0 7.726 3.459 7.726 7.726s-3.459 7.726-7.726 7.726z" fill="#818181" style="fill: rgb(0, 0, 0);"></path><path d="m466.631 203.985h-306.325c-4.267 0-7.726-3.459-7.726-7.726s3.459-7.726 7.726-7.726h306.324c4.267 0 7.726 3.459 7.726 7.726.001 4.267-3.458 7.726-7.725 7.726z" fill="#818181" style="fill: rgb(0, 0, 0);"></path><path d="m445.686 404.711h-89.684c-15.835 0-28.672-12.837-28.672-28.672v-109.99c0-15.835 12.837-28.672 28.672-28.672h89.684c15.835 0 28.672 12.837 28.672 28.672v109.991c-.001 15.835-12.838 28.671-28.672 28.671z" fill="#dfeaef" style="fill: rgb(255, 255, 255);"></path><g fill="#818181"><path d="m466.631 453.556h-131.575c-4.267 0-7.726-3.459-7.726-7.726s3.459-7.726 7.726-7.726h131.574c4.267 0 7.726 3.459 7.726 7.726.001 4.267-3.458 7.726-7.725 7.726z" fill="#818181" style="fill: rgb(0, 0, 0);"></path><g><path d="m291.891 253.897h-131.585c-4.267 0-7.726-3.459-7.726-7.726s3.459-7.726 7.726-7.726h131.585c4.267 0 7.726 3.459 7.726 7.726.001 4.267-3.459 7.726-7.726 7.726z" fill="#000000" style="fill: rgb(255, 255, 255);"></path><path d="m291.891 303.819h-131.585c-4.267 0-7.726-3.459-7.726-7.726s3.459-7.726 7.726-7.726h131.585c4.267 0 7.726 3.459 7.726 7.726.001 4.267-3.459 7.726-7.726 7.726z" fill="#000000" style="fill: rgb(255, 255, 255);"></path><path d="m291.891 353.732h-131.585c-4.267 0-7.726-3.459-7.726-7.726s3.459-7.726 7.726-7.726h131.585c4.267 0 7.726 3.459 7.726 7.726.001 4.267-3.459 7.726-7.726 7.726z" fill="#000000" style="fill: rgb(255, 255, 255);"></path><path d="m291.891 403.644h-131.585c-4.267 0-7.726-3.459-7.726-7.726s3.459-7.726 7.726-7.726h131.585c4.267 0 7.726 3.459 7.726 7.726.001 4.267-3.459 7.726-7.726 7.726z" fill="#000000" style="fill: rgb(255, 255, 255);"></path><path d="m291.891 453.556h-131.585c-4.267 0-7.726-3.459-7.726-7.726s3.459-7.726 7.726-7.726h131.585c4.267 0 7.726 3.459 7.726 7.726.001 4.267-3.459 7.726-7.726 7.726z" fill="#000000" style="fill: rgb(255, 255, 255);"></path></g><g><path d="m114.937 196.785v15.453h-71.793c-4.265 0-7.726-3.462-7.726-7.726 0-4.265 3.461-7.726 7.726-7.726h71.793z" fill="#000000" style="fill: rgb(255, 255, 255);"></path><path d="m114.937 246.708v15.453h-71.793c-4.265 0-7.726-3.461-7.726-7.726s3.461-7.726 7.726-7.726h71.793z" fill="#000000" style="fill: rgb(255, 255, 255);"></path><path d="m114.937 296.62v15.453h-71.793c-4.265 0-7.726-3.461-7.726-7.726s3.461-7.726 7.726-7.726h71.793z" fill="#000000" style="fill: rgb(255, 255, 255);"></path><path d="m114.937 346.532v15.453h-71.793c-4.265 0-7.726-3.461-7.726-7.726s3.461-7.726 7.726-7.726h71.793z" fill="#000000" style="fill: rgb(255, 255, 255);"></path><path d="m114.937 396.445v15.453h-71.793c-4.265 0-7.726-3.461-7.726-7.726s3.461-7.726 7.726-7.726h71.793z" fill="#000000" style="fill: rgb(255, 255, 255);"></path></g></g><g><g><path d="m167.019 176.202c-4.267 0-7.726-3.459-7.726-7.726v-74.226c0-3.381 2.199-6.37 5.427-7.376 3.229-1.006 6.736.204 8.657 2.986l37.82 54.765-.488-50.439c-.041-4.267 3.384-7.76 7.651-7.801h.076c4.232 0 7.684 3.41 7.724 7.652l.695 71.859c.001 4.385-2.416 7.925-6.156 9.092-3.649 1.141-7.517-.3-9.85-3.672l-36.104-52.281v49.441c0 4.267-3.459 7.726-7.726 7.726z" fill="#818181" style="fill: rgb(0, 0, 0);"></path></g><g fill="#818181"><path d="m289.907 176.202h-31.048c-4.267 0-7.726-3.459-7.726-7.726v-73.686c0-4.267 3.459-7.726 7.726-7.726h31.048c4.267 0 7.726 3.459 7.726 7.726s-3.459 7.726-7.726 7.726h-23.321v58.233h23.321c4.267 0 7.726 3.459 7.726 7.726 0 4.268-3.459 7.727-7.726 7.727z" fill="#818181" style="fill: rgb(0, 0, 0);"></path><path d="m287.618 139.359h-28.759c-4.267 0-7.726-3.459-7.726-7.726s3.459-7.726 7.726-7.726h28.759c4.267 0 7.726 3.459 7.726 7.726s-3.459 7.726-7.726 7.726z" fill="#818181" style="fill: rgb(0, 0, 0);"></path></g><g><path d="m439.351 176.202c-12.116 0-23.944-5.069-31.639-13.561-2.866-3.162-2.626-8.048.536-10.913 3.163-2.866 8.048-2.624 10.913.536 4.815 5.313 12.363 8.485 20.19 8.485 8.009 0 13.68-4.957 14.535-9.748.842-4.714-3.077-9.042-10.752-11.872-11.485-4.236-21.679-8.774-22.108-8.965-.372-.166-.73-.361-1.072-.584-7.324-4.775-11.097-13.151-9.847-21.86 1.338-9.322 8.179-16.924 17.854-19.838 19.512-5.877 35.605 7.392 36.28 7.96 3.267 2.746 3.689 7.62.943 10.886-2.737 3.256-7.589 3.685-10.855.969-.273-.221-10.596-8.428-21.911-5.02-5.638 1.698-6.784 5.628-7.015 7.238-.367 2.556.589 4.92 2.568 6.423 2.403 1.054 11.123 4.83 20.511 8.293 17.854 6.586 22.356 19.343 20.616 29.086-2.289 12.819-15.077 22.485-29.747 22.485z" fill="#818181" style="fill: rgb(0, 0, 0);"></path></g><g><path d="m329.954 176.203c-3.973 0-7.529-2.507-8.861-6.255-.126-.355-.227-.719-.3-1.09l-14.488-73.248c-.828-4.186 1.894-8.251 6.08-9.079 4.182-.828 8.25 1.894 9.078 6.08l9.795 49.518 15.33-49.529c.624-3.14 3.157-5.637 6.428-6.13 3.785-.569 7.409 1.712 8.534 5.366l15.492 50.288 9.828-49.385c.833-4.185 4.9-6.904 9.086-6.07 4.185.833 6.902 4.901 6.07 9.086l-14.546 73.09c-.066.331-.154.658-.263.978-1.287 3.787-4.84 6.351-8.84 6.378-4.002.031-7.587-2.486-8.927-6.256-.037-.103-.071-.207-.103-.312l-15.178-49.268-15.246 49.256c-.021.068-.043.136-.066.204-1.288 3.786-4.84 6.349-8.839 6.376-.021.001-.042.002-.064.002z" fill="#818181" style="fill: rgb(0, 0, 0);"></path></g></g></g></svg>